<?xml version="1.0" encoding="utf-8"?>
<!-- Generator: Adobe Illustrator 23.0.3, SVG Export Plug-In . SVG Version: 6.00 Build 0)  -->
<svg version="1.1" xmlns="http://www.w3.org/2000/svg" xmlns:xlink="http://www.w3.org/1999/xlink" x="0px" y="0px"
	 viewBox="0 0 1380 205" style="enable-background:new 0 0 1380 205;" xml:space="preserve">
<style type="text/css">
	.st0{fill:#3C5A8A;}
	.st1{fill:#FDBE3F;}
	.st2{fill:none;}
	.st3{fill:#FEFEFE;}
	.st4{fill:#FEBE3F;}
	.st5{fill:#1F1F8B;}
	.st6{fill:#FFFFFF;}
	.st7{font-family:'MyriadPro-Regular';}
	.st8{font-size:60px;}
</style>
<g id="Layer_1">
	<path class="st0" d="M1380,205c-358.2,0-534.8,0-632,0c-89.6,0-51-159-141-159c0,0-420.7,0-607,0C0,30.7,0,15.3,0,0h1380V205z"/>
</g>
<g id="Layer_2">
	<g>
		<path class="st1" d="M1177.2,105.5c0-2.3,0-4.6,0-6.8c0.1-0.1,0.1-0.3,0.1-0.4c0-1.4,0.1-2.9,0.1-4.3c0-1.7,0.2-3.3,0.5-5
			c0.5-4.1,1.3-8.1,2.3-12.1c1.5-5.8,3.5-11.4,6-16.8c2.1-4.5,4.5-8.8,7.2-13c2.3-3.5,4.8-6.8,7.5-10c1.4-1.6,2.8-3.2,4.3-4.7
			c3.7-3.9,7.8-7.5,12.2-10.7c3.7-2.8,7.6-5.3,11.7-7.5c7-3.8,14.3-6.8,22-8.8c3.7-1,7.4-1.8,11.2-2.3c2.9-0.4,5.8-0.8,8.8-0.8
			c2.9,0,5.8-0.1,8.8-0.1c2,0,4,0,6,0.2c1.8,0.1,3.5,0.4,5.3,0.6c4,0.6,8,1.4,11.9,2.4c5.2,1.4,10.3,3.2,15.2,5.4
			c5.4,2.4,10.5,5.3,15.3,8.6c3.2,2.2,6.2,4.5,9.1,7c1.8,1.6,3.5,3.2,5.2,4.8c1.8,1.8,3.6,3.7,5.3,5.7c2.6,3.1,5.1,6.3,7.3,9.7
			c2.6,3.9,5,8,7,12.3c2.8,5.9,5,12,6.6,18.3c1.1,4.1,1.8,8.3,2.4,12.6c0.4,2.9,0.5,5.9,0.6,8.9c0,1.9,0.1,3.9,0,5.8
			c0,2.1,0,4.2-0.2,6.2c-0.2,3-0.7,6-1.2,8.9c-0.9,5.3-2.3,10.6-4.1,15.7c-1.7,4.8-3.7,9.5-6.2,14c-2.4,4.5-5.1,8.7-8.1,12.8
			c-1.9,2.6-4,5.1-6.2,7.5c-1.1,1.2-2.1,2.3-3.2,3.4c-1.8,1.8-3.8,3.6-5.7,5.3c-2.8,2.4-5.6,4.6-8.6,6.6c-4,2.8-8.3,5.2-12.7,7.3
			c-6.1,3-12.5,5.3-19.2,7c-3.2,0.8-6.4,1.5-9.6,1.9c-2.8,0.4-5.7,0.8-8.5,0.8c-1,0-2.1-0.1-3.1,0.1c-2.2,0-4.5,0-6.7,0
			c-1-0.2-1.9-0.1-2.9-0.1c-3.8,0-7.6-0.6-11.3-1.2c-5.5-1-10.9-2.4-16.2-4.3c-5.6-2-11.1-4.5-16.3-7.5c-3.4-1.9-6.6-4.1-9.7-6.4
			c-2.2-1.6-4.3-3.4-6.4-5.2c-1.6-1.4-3.2-2.9-4.8-4.5c-3.1-3.1-5.9-6.3-8.6-9.8c-3.3-4.3-6.2-8.7-8.7-13.5
			c-2.7-5.1-5-10.4-6.9-15.9c-1.7-5-2.9-10.2-3.8-15.4c-0.4-2.6-0.8-5.3-0.9-7.9c0-1.5-0.1-3-0.1-4.5
			C1177.2,105.7,1177.2,105.6,1177.2,105.5z"/>
		<path class="st2" d="M1280.4,202c1-0.2,2-0.1,3-0.2c6.3-0.4,12.6-1.4,18.7-3c7.6-1.9,14.8-4.7,21.7-8.4c6.9-3.6,13.2-8,19.1-13.1
			c9-7.9,16.4-17.1,22.1-27.6c3.7-6.8,6.5-13.9,8.5-21.4c1.3-4.9,2.2-9.8,2.8-14.8c0.5-4.6,0.8-9.2,0.6-13.8
			c-0.1-3.9-0.4-7.8-1-11.7c-1-6.9-2.6-13.6-5-20.2c-2.1-5.7-4.7-11.3-7.8-16.5c-4-6.8-8.8-13.1-14.4-18.8
			c-6.9-7.1-14.7-13.1-23.4-17.9c-7.1-3.9-14.5-6.9-22.4-9c-4.8-1.3-9.6-2.2-14.5-2.8c-4.4-0.5-8.8-0.7-13.3-0.7
			c-4.2,0.1-8.3,0.4-12.4,1c-7,1-13.9,2.7-20.5,5.2c-7.4,2.7-14.3,6.3-20.9,10.7c-4.7,3.2-9.1,6.7-13.2,10.6
			c-7.6,7.2-13.9,15.5-19,24.7c-3.8,6.9-6.7,14.2-8.7,21.9c-1.2,4.7-2.1,9.4-2.7,14.2c-0.3,2.6-0.5,5.2-0.6,7.7
			c0,0.2-0.1,0.3-0.1,0.5c0-32,0-64,0-96c0-0.5,0.1-0.6,0.6-0.6c66.3,0,132.6,0,198.8,0c0.5,0,0.6,0.1,0.6,0.6
			c0,66.3,0,132.6,0,198.8c0,0.5-0.1,0.6-0.6,0.6C1344.5,202,1312.4,202,1280.4,202z"/>
		<path class="st2" d="M1177.2,105.5c0.2,0.9,0.1,1.9,0.2,2.9c0.4,6.2,1.4,12.4,2.9,18.5c1.5,6.1,3.7,12,6.4,17.7
			c2.7,5.8,6,11.3,9.8,16.5c4.7,6.4,10,12.1,16.1,17.2c8.9,7.5,18.8,13.3,29.7,17.4c5.7,2.1,11.5,3.7,17.5,4.7
			c4.5,0.8,8.9,1.3,13.4,1.4c0.2,0,0.4,0,0.5,0.1c-32,0-64,0-96,0c-0.4,0-0.5-0.1-0.5-0.5C1177.2,169.5,1177.2,137.5,1177.2,105.5z"
			/>
		<path class="st3" d="M1192.9,102c0.2-46.6,37.7-84.2,84.3-84.1c46.7,0,84.2,37.7,84.2,84.2c0,46.7-37.7,84.3-84.3,84.2
			C1230.3,186.2,1192.9,148.5,1192.9,102z"/>
		<path class="st0" d="M1198.3,48.2c0-2.3,2-4.6,4.2-4.9c0.8-0.1,1.5,0,2.2,0.3c1.9,0.8,3.4,2.1,3.7,4.3c0.3,2-0.7,3.5-2.2,4.6
			c-1.4,1.1-3,1-4.5,0.2c-1.5-0.8-2.8-1.9-3.2-3.6C1198.4,48.8,1198.4,48.5,1198.3,48.2z"/>
		<path class="st0" d="M1190.4,61.4c0.1-1.5,0.8-3,2.2-4.1c0.9-0.7,2-0.9,3.1-0.7c2.1,0.4,3.9,1.4,4.6,3.5c0.6,1.9-0.1,3.5-1.3,4.9
			c-1.2,1.3-2.7,1.6-4.4,1.1c-1.2-0.3-2.2-0.9-3.1-1.8C1190.7,63.6,1190.4,62.6,1190.4,61.4z"/>
		<path class="st0" d="M1262.4,11c0-2.8,1.6-4.6,4.3-4.8c3-0.2,5,1.5,5.2,4.5c0.1,0.8,0,1.7-0.3,2.5c-0.9,2.5-3.4,3.1-5.3,2.8
			c-2.2-0.3-3.6-2-3.8-4.4C1262.5,11.4,1262.4,11.2,1262.4,11z"/>
		<path class="st0" d="M1192.3,84.5c0,0.1,0.1,0.1,0.1,0.1c-0.2,1.5-0.2,1.5-1.7,2.1c-0.8,0.3-1.6,0.7-2.4,1
			c-0.4,0.1-0.5,0.4-0.6,0.7c-0.2,1.3-0.2,1.3,1.1,1.5c0.7,0.1,1.5,0.3,2.2,0.4c0.3,0,0.4,0.2,0.4,0.5c-0.2,1.1-0.1,1.1-1.2,0.9
			c-2.6-0.4-5.1-0.8-7.7-1.3c-0.8-0.1-0.8-0.1-0.7-0.9c0.2-1,0.3-2.1,0.5-3.1c0.2-1.2,0.7-2.3,2.1-2.7c1.6-0.5,3.2,0.5,3.5,2.2
			c0.1,0.4,0.2,0.4,0.5,0.3C1189.6,85.7,1190.9,85.1,1192.3,84.5z"/>
		<path class="st0" d="M1285.6,15.7c-0.5,0-1,0-1.4,0c-0.3,0-0.3-0.2-0.4-0.4c-0.6-1.1-1.2-2.1-1.8-3.2c-0.2-0.4-0.4-0.6-0.9-0.5
			c-0.4,0.1-1-0.2-1.2,0.1c-0.2,0.3-0.1,0.8-0.1,1.2c0,0.7-0.1,1.5-0.1,2.2c0,0.3-0.1,0.4-0.5,0.4c-1.1,0-1.1,0-1-1.1
			c0.1-2.7,0.3-5.4,0.4-8.1c0-0.4,0.1-0.5,0.5-0.5c1.4,0.1,2.8,0,4.1,0.3c1.9,0.3,2.8,1.7,2.3,3.5c-0.3,1-0.9,1.6-1.9,1.8
			c-0.4,0.1-0.4,0.2-0.2,0.5c0.6,1.1,1.3,2.2,1.9,3.2C1285.4,15.3,1285.5,15.5,1285.6,15.7z"/>
		<path class="st0" d="M1367.2,68.1c0,0.3-0.2,0.3-0.4,0.3c-1,0.3-2,0.7-2.9,1c-0.3,0.1-0.4,0.2-0.3,0.6c0.5,1.4,1,2.8,1.4,4.2
			c0.1,0.3,0.2,0.4,0.6,0.3c1-0.4,2-0.7,2.9-1c0.3-0.1,0.5,0,0.6,0.3c0.3,1,0.4,1-0.6,1.3c-2.6,0.9-5.1,1.7-7.7,2.6
			c-0.5,0.2-0.6,0.1-0.7-0.4c-0.3-0.9-0.3-0.9,0.6-1.2c0.9-0.3,1.9-0.7,2.8-1c0.3-0.1,0.4-0.2,0.3-0.6c-0.5-1.4-1-2.8-1.4-4.2
			c-0.1-0.3-0.2-0.4-0.5-0.2c-1.1,0.4-2.2,0.7-3.3,1.1c-0.4,0.1-0.5,0.1-0.7-0.3c-0.3-1-0.3-1,0.7-1.3c2.5-0.9,5-1.7,7.6-2.6
			c0.5-0.2,0.7-0.1,0.8,0.4C1367,67.7,1367.2,67.9,1367.2,68.1z"/>
		<path class="st0" d="M1241.9,16.8c-0.1-0.1-0.1-0.3-0.2-0.4c-0.4-0.9-0.8-1.8-1.2-2.7c-0.2-0.3-0.1-0.5,0.2-0.6
			c0.9-0.4,0.9-0.4,1.4,0.5c1.1,2.5,2.2,4.9,3.3,7.4c0.2,0.4,0.1,0.6-0.3,0.7c-0.9,0.4-0.9,0.4-1.3-0.5c-0.4-0.9-0.8-1.8-1.2-2.7
			c-0.1-0.3-0.3-0.4-0.6-0.2c-1.3,0.6-2.6,1.2-3.9,1.8c-0.4,0.2-0.5,0.3-0.3,0.7c0.5,1,0.9,2,1.4,3c0.2,0.4,0.2,0.6-0.3,0.7
			c-0.9,0.4-0.9,0.4-1.3-0.5c-1.1-2.4-2.2-4.9-3.3-7.3c-0.2-0.5-0.1-0.7,0.3-0.8c0.8-0.3,0.8-0.4,1.2,0.4c0.4,0.8,0.8,1.7,1.1,2.5
			c0.1,0.2,0.2,0.3,0.5,0.2c1.4-0.6,2.8-1.3,4.2-1.9C1241.7,17,1241.9,16.9,1241.9,16.8z"/>
		<path class="st0" d="M1293,7c2,0.4,3.9,0.8,5.9,1.2c0.6,0.1,0.2,0.5,0.2,0.8c0,0.2,0,0.5-0.5,0.4c-1.4-0.3-2.8-0.6-4.2-0.9
			c-0.3-0.1-0.5-0.1-0.6,0.4c-0.1,0.7-0.2,1.3-0.4,2c-0.1,0.4,0.1,0.5,0.4,0.6c1.2,0.2,2.5,0.5,3.7,0.7c0.4,0.1,0.5,0.2,0.4,0.6
			c-0.1,0.3,0,0.8-0.6,0.6c-1.3-0.3-2.5-0.5-3.8-0.8c-0.3-0.1-0.4,0-0.5,0.3c-0.1,0.8-0.3,1.5-0.4,2.2c-0.1,0.4,0,0.5,0.4,0.6
			c1.4,0.3,2.9,0.5,4.3,0.8c0.3,0.1,0.7,0.1,0.5,0.6c-0.1,0.3,0,0.8-0.7,0.6c-2-0.5-4-0.8-5.9-1.2c-0.3-0.1-0.4-0.2-0.3-0.5
			c0.6-2.9,1.1-5.8,1.7-8.7C1292.7,7.2,1292.7,6.9,1293,7z"/>
		<path class="st0" d="M1251.6,19.4c-0.3,0.1-0.3-0.1-0.3-0.3c-0.8-2.9-1.6-5.7-2.4-8.6c-0.1-0.3,0-0.4,0.2-0.4
			c1.9-0.5,3.9-1.1,5.8-1.6c0.6-0.2,0.4,0.3,0.6,0.6c0.1,0.3,0.1,0.5-0.3,0.6c-1.4,0.3-2.7,0.8-4.1,1.1c-0.5,0.1-0.5,0.3-0.4,0.7
			c0.2,0.6,0.4,1.3,0.5,1.9c0.1,0.3,0.2,0.4,0.5,0.3c1.2-0.4,2.5-0.7,3.7-1.1c0.5-0.2,0.5,0.1,0.6,0.4c0.1,0.3,0.2,0.6-0.3,0.7
			c-1.2,0.3-2.5,0.7-3.7,1c-0.3,0.1-0.5,0.2-0.3,0.6c0.2,0.7,0.4,1.4,0.6,2.2c0.1,0.4,0.2,0.5,0.6,0.3c1.4-0.4,2.9-0.8,4.3-1.2
			c0.5-0.2,0.6,0.1,0.7,0.5c0.1,0.4,0.1,0.6-0.4,0.7c-1.9,0.5-3.8,1-5.7,1.6C1251.8,19.3,1251.7,19.3,1251.6,19.4z"/>
		<path class="st0" d="M1185.7,104.2c-1.4,0-2.9,0-4.3,0c-0.5,0-0.6-0.2-0.6-0.6c0-1.9,0.1-3.7,0.1-5.6c0-0.5,0.2-0.6,0.6-0.5
			c0.4,0,0.7,0,0.7,0.5c-0.1,1.4,0,2.8-0.1,4.2c0,0.4,0.1,0.5,0.5,0.5c0.7,0,1.3,0,2,0c0.4,0,0.5-0.1,0.5-0.5c0-1.3,0-2.6,0-3.8
			c0-0.5,0.2-0.5,0.6-0.5c0.3,0,0.7-0.1,0.6,0.5c-0.1,1.3,0,2.6-0.1,3.8c0,0.4,0.1,0.5,0.5,0.5c0.7,0,1.5,0,2.2,0
			c0.4,0,0.5-0.1,0.5-0.5c0-1.5,0.1-3,0-4.5c0-0.6,0.3-0.5,0.7-0.5c0.4,0,0.6,0,0.5,0.5c-0.1,2-0.1,4-0.1,6c0,0.5-0.2,0.5-0.6,0.5
			c-1.4,0-2.8,0-4.2,0C1185.7,104.3,1185.7,104.3,1185.7,104.2z"/>
		<path class="st0" d="M1367.5,134.3c-0.1,1.1-0.5,2.3-1.3,3.4c-0.5,0.7-1.2,0.9-2.1,0.9c-0.3,0-0.4-0.1-0.3-0.4
			c0.1-0.2,0.1-0.3,0.1-0.5c0-0.4,0.2-0.6,0.6-0.6c0.4,0,0.7-0.2,1-0.5c0.6-0.7,0.9-1.5,0.9-2.4c0-0.5-0.3-0.9-0.7-1.1
			c-0.4-0.2-0.9-0.2-1.3,0.1c-0.4,0.3-0.6,0.6-0.9,1c-0.5,0.7-1,1.5-1.6,2.1c-0.8,0.9-1.7,1.1-2.8,0.7c-1.1-0.4-1.7-1.2-1.7-2.4
			c0-1.6,0.6-3.1,1.7-4.3c0.6-0.6,1.3-0.9,2.1-0.9c0.3,0,0.5,0.1,0.4,0.4c0,0.1,0,0.3-0.1,0.4c-0.1,0.4-0.1,0.8-0.7,0.7
			c-0.4,0-0.8,0.2-1,0.5c-0.8,0.8-1.2,1.8-1.1,3c0.1,1.1,1.3,1.6,2.1,1c0.4-0.3,0.6-0.6,0.9-1c0.5-0.7,1-1.5,1.6-2.2
			c0.8-0.8,1.7-1,2.7-0.6C1367,132.2,1367.5,132.9,1367.5,134.3z"/>
		<path class="st0" d="M1365.8,95c0.1,0.2,0.1,0.3,0.2,0.5c0.2,0.5,0.3,1-0.5,1.3c-0.3,0.1-0.5,0.4-0.6,0.7
			c-0.4,1.1-0.4,2.2,0.1,3.3c0.2,0.5,0.7,0.7,1.2,0.7c0.6,0,1-0.3,1.2-0.8c0.4-0.7,0.4-1.5,0.6-2.3c0.1-0.6,0.3-1.2,0.6-1.8
			c0.8-1.6,3.1-1.7,4-0.2c0.9,1.6,0.9,3.2,0.3,4.9c-0.1,0.3-0.4,0.6-0.6,0.8c-0.3,0.2-0.8,0.6-1.1,0.4c-0.2-0.2-0.2-0.8-0.3-1.1
			c0-0.2,0.1-0.3,0.3-0.3c0.6-0.3,0.9-0.8,1-1.5c0-0.6,0-1.1-0.1-1.7c-0.2-0.6-0.6-0.9-1.2-1c-0.6,0-1,0.3-1.2,0.8
			c-0.3,0.8-0.4,1.6-0.6,2.4c-0.1,0.4-0.2,0.8-0.3,1.1c-0.4,1.2-1.1,1.7-2.3,1.7c-1.2,0-2-0.5-2.5-1.6c-0.6-1.4-0.6-3-0.2-4.4
			C1364,95.9,1364.7,95.3,1365.8,95z"/>
		<path class="st0" d="M1331.2,34.1c0.1-0.2,0.3-0.2,0.4-0.3c2.7-1.4,5.4-2.9,8.2-4.3c0.3-0.2,0.6-0.2,0.9,0.1c0.9,0.9,1,0.9,0.5,2
			c-1,2.7-2,5.3-3,8c-0.2,0.5-0.3,0.5-0.6,0.2c-0.7-0.7-0.7-0.6-0.4-1.5c0.2-0.6,0.8-1.2,0.6-1.8c-0.2-0.5-0.9-0.9-1.3-1.3
			c-0.5-0.4-0.9-1.1-1.5-1.2c-0.6-0.2-1.1,0.5-1.7,0.8C1332.2,35.2,1332.2,35.2,1331.2,34.1z"/>
		<path class="st0" d="M1191.5,73.4c0,1-0.4,1.9-0.7,2.8c-0.2,0.5-0.1,0.7,0.4,0.8c0.8,0.2,1.6,0.5,2.5,0.8c0.3,0.1,0.4,0.2,0.3,0.6
			c-0.3,1.1-0.3,1.1-1.4,0.7c-2.6-0.8-5.1-1.6-7.7-2.4c-0.5-0.1-0.5-0.3-0.4-0.7c0.4-1.1,0.7-2.2,1.1-3.3c0.4-1.1,1-2,2.3-2.2
			C1189.8,70,1191.5,71.5,1191.5,73.4z"/>
		<path class="st0" d="M1359.6,62.1c-0.8,0-1.6-0.7-2.2-1.6c-0.4-0.6-0.7-1.3-1-2c-0.2-0.3-0.3-0.3-0.6-0.2
			c-0.8,0.5-1.7,0.9-2.5,1.4c-0.3,0.2-0.4,0.1-0.6-0.2c-0.5-1-0.5-1,0.4-1.5c2.4-1.3,4.8-2.5,7.2-3.8c0.4-0.2,0.5-0.2,0.7,0.2
			c0.5,1,1,1.9,1.5,2.8c0.2,0.3,0.3,0.6,0.4,1C1363.4,60.3,1362.1,62.1,1359.6,62.1z"/>
		<path class="st0" d="M1365.9,116.5c1,0,2,0.2,3,0.7c2.2,1,3,3,2.2,5.5c-0.4,1.4-1.3,2.3-2.7,2.7c-0.3,0.1-0.4,0-0.4-0.3
			c0-0.1,0-0.3,0-0.4c-0.2-0.5,0-0.7,0.5-0.9c1-0.3,1.5-1.2,1.7-2.2c0.2-1.1-0.1-2-1.1-2.6c-1.2-0.8-2.6-1.1-4-0.9
			c-1.1,0.2-1.8,0.8-2.2,1.9c-0.3,1.1-0.1,2.1,0.7,2.9c0.2,0.2,0.5,0.3,0.4,0.5c-0.2,0.4-0.4,0.7-0.7,1c-0.1,0.2-0.2,0-0.3-0.1
			c-0.7-0.6-1.3-1.4-1.5-2.4C1360.8,119.1,1362.9,116.5,1365.9,116.5z"/>
		<path class="st0" d="M1327,20.2c2.5,0,4.7,2.1,4.7,4.3c0,0.5,0,0.7-0.6,0.6c-0.6-0.1-0.8-0.3-0.8-0.9c0-2-2.6-3.3-4.3-2.2
			c-1.3,0.9-2.1,2.1-2.3,3.7c-0.2,1.1,0.3,2,1.2,2.6c0.9,0.7,1.9,0.7,3,0.2c0.2-0.1,0.4-0.4,0.6-0.2c0.3,0.3,0.5,0.7,0.7,1
			c0.1,0.1-0.1,0.2-0.2,0.2c-1.2,0.6-2.4,0.8-3.6,0.3c-2.2-0.9-3.4-2.8-3-5c0.4-1.7,1.3-3.1,2.7-4.1
			C1325.6,20.4,1326.3,20.2,1327,20.2z"/>
		<path class="st0" d="M1190,113.8c-2.8-0.5-5.5-1-8.1-1.5c-0.5-0.1-0.7-0.2-0.6-0.7c0-0.3-0.1-0.6-0.1-1c1.3,0.3,2.7,0.6,4,0.9
			c1.9,0.4,3.7,0.9,5.6,1.3c0.3,0.1,0.5,0.2,0.5,0.5c0,0.1,0,0.1,0,0.2c0.1,1,0.1,1-0.7,1.4c-2.6,1.4-5.2,2.7-7.8,4.1
			c-0.4,0.2-0.5,0.2-0.6-0.3c-0.1-1.1-0.1-1.1,0.8-1.5c2.1-1,4.3-2.1,6.4-3.1C1189.6,114,1189.7,113.9,1190,113.8z"/>
		<path class="st0" d="M1230.8,28.9c0,0.2-0.1,0.2-0.2,0.3c-1,0.8-1,0.7-1.6-0.3c-1.2-1.9-2.5-3.8-3.7-5.7c-0.3-0.4-0.4-0.4-0.8-0.1
			c-0.6,0.4-1.3,0.8-1.9,1.2c-0.3,0.2-0.4,0.2-0.6-0.1c-0.4-0.7-0.5-0.7,0.2-1.1c1.9-1.2,3.8-2.5,5.7-3.7c0.5-0.3,0.5,0,0.7,0.3
			c0.2,0.3,0.5,0.5,0,0.8c-0.7,0.4-1.3,0.9-2,1.3c-0.4,0.2-0.4,0.4-0.2,0.7c1.3,2,2.7,4.1,4,6.2
			C1230.6,28.7,1230.7,28.8,1230.8,28.9z"/>
		<path class="st0" d="M1307.7,12.2c0.1-0.3-0.2-0.3-0.3-0.4c-0.8-0.3-1.5-0.5-2.3-0.8c-0.3-0.1-0.3-0.2-0.2-0.5
			c0.3-0.8,0.3-0.8,1.1-0.5c2.1,0.7,4.2,1.5,6.4,2.2c0.5,0.2,0.4,0.4,0.3,0.7c-0.1,0.3-0.1,0.7-0.7,0.5c-0.7-0.3-1.5-0.5-2.2-0.8
			c-0.4-0.1-0.5-0.1-0.6,0.3c-0.8,2.3-1.6,4.6-2.4,6.9c-0.1,0.4-0.3,0.6-0.8,0.4c-0.9-0.4-0.9-0.3-0.6-1.2c0.8-2.2,1.5-4.4,2.3-6.5
			C1307.7,12.4,1307.7,12.3,1307.7,12.2z"/>
		<path class="st0" d="M1371.1,81c0.1,0.4,0.1,0.8,0.2,1.3c0.1,0.3-0.1,0.4-0.3,0.5c-1,0.9-2,1.7-3.1,2.6c-0.2,0.1-0.3,0.3-0.5,0.5
			c1.4,0.5,2.7,1,4,1.4c0.6,0.2,0.9,0.5,0.9,1.1c0,0.2,0.1,0.5,0.1,0.8c-0.7-0.3-1.4-0.5-2.1-0.8c-0.9-0.3-1.8-0.6-2.6-1
			c-1.1-0.6-2.2-0.6-3.3-0.3c-0.6,0.2-1.2,0.2-1.7,0.3c-0.3,0.1-0.4,0-0.5-0.3c-0.3-1.1-0.3-1.1,0.9-1.3c0.2,0,0.4-0.1,0.6-0.1
			c1.7,0,2.9-0.8,4.1-2c0.8-0.8,1.7-1.5,2.6-2.3C1370.7,81.2,1370.8,81,1371.1,81z"/>
		<path class="st0" d="M1213.9,43.1c-0.1-0.1-0.2-0.1-0.3-0.2c-2.1-2.1-4.2-4.2-6.3-6.3c-0.2-0.2-0.2-0.3,0-0.6
			c0.8-0.8,0.8-0.9,1.6-0.1c1.6,1.6,3.3,3.2,4.9,4.9c0.3,0.3,0.4,0.3,0.7,0c0.9-0.9,1.8-1.7,2.6-2.7c0.3-0.3,0.5-0.1,0.6,0.1
			c0.2,0.2,0.7,0.3,0.2,0.8c-1.3,1.3-2.5,2.5-3.8,3.8C1214.1,42.9,1214,43,1213.9,43.1z"/>
		<path class="st0" d="M1346.1,47.5c-0.3,0.2-0.5,0.5-0.8,0.6c-0.3,0.2-0.3-0.1-0.4-0.2c-1.1-1.3-2.2-2.6-3.4-3.9
			c-0.3-0.3-0.2-0.4,0.1-0.6c2.2-1.9,4.5-3.8,6.7-5.7c0.3-0.2,0.4-0.2,0.6,0.1c0.7,0.8,0.7,0.8-0.1,1.5c-1.7,1.5-3.5,3-5.2,4.5
			c-0.4,0.3-0.3,0.5,0,0.8c0.8,0.9,1.5,1.8,2.3,2.7C1345.9,47.2,1346,47.3,1346.1,47.5z"/>
		<path class="st0" d="M1196.8,134.8c0,0.3-0.3,0.3-0.4,0.3c-2.4,0.9-4.8,1.8-7.3,2.7c-0.1,0-0.2,0.1-0.3,0.1
			c-1,0.4-1.2,0.3-1.4-0.8c-0.1-0.4,0.2-0.3,0.4-0.4c2.3-0.9,4.5-1.7,6.8-2.5c0.6-0.2,0.7-0.4,0.5-1c-0.5-1.1-0.8-2.2-1.2-3.2
			c-0.2-0.5,0.2-0.4,0.4-0.5c0.2-0.1,0.5-0.5,0.7,0.1c0.6,1.7,1.3,3.4,1.9,5.1C1196.8,134.7,1196.8,134.8,1196.8,134.8z"/>
		<path class="st0" d="M1319.6,15.9c0,0-0.1,0.1-0.1,0.2c-1.2,2.6-2.5,5.1-3.7,7.7c-0.2,0.4-0.4,0.5-0.8,0.3
			c-0.8-0.5-0.9-0.4-0.4-1.3c1.2-2.5,2.4-4.9,3.6-7.4c0.2-0.4,0.3-0.5,0.7-0.2c0.2,0.1,0.5,0.2,0.7,0.3
			C1319.6,15.5,1319.7,15.6,1319.6,15.9z"/>
		<path class="st0" d="M1364.1,108.7c2.8,0.2,5.6,0.5,8.4,0.7c0.4,0,0.5,0.1,0.5,0.5c-0.1,1-0.1,1.1-1.1,1c-2.7-0.2-5.4-0.5-8.1-0.7
			c-0.3,0-0.5-0.1-0.4-0.5c0-0.1,0-0.2,0-0.3C1363.3,108.6,1363.3,108.6,1364.1,108.7z"/>
		<path class="st0" d="M1193.3,124c0,0.3-0.1,0.3-0.3,0.3c-2.9,0.7-5.8,1.5-8.7,2.2c-0.2,0.1-0.4,0-0.4-0.3c0,0,0-0.1,0-0.1
			c-0.3-1-0.3-1,0.8-1.3c2.6-0.7,5.2-1.3,7.7-2c0.5-0.1,0.7,0,0.8,0.5C1193.2,123.6,1193.2,123.8,1193.3,124z"/>
		<path class="st0" d="M1277.1,184c-45.2,0.1-81.9-36.7-81.9-81.9c0-45.2,36.6-81.8,81.9-81.9c45.2-0.1,81.9,36.6,82,81.9
			C1359.1,147.2,1322.4,183.9,1277.1,184z"/>
		<path class="st4" d="M1203.8,51.8c-1.3,0-3.3-1.4-3.9-2.9c-0.4-1.2-0.1-2.2,0.7-3.1c0.8-0.9,1.8-1.2,2.9-1
			c1.3,0.3,2.4,1.1,3.2,2.3c0.6,1,0.6,2,0,2.9C1206.1,51.1,1205.3,51.8,1203.8,51.8z"/>
		<path class="st4" d="M1195.9,64.8c-1.3-0.1-2.6-0.7-3.6-1.9c-0.8-1-0.8-2.2-0.1-3.5c0.7-1.1,1.8-1.6,3-1.4
			c1.2,0.2,2.2,0.7,3.1,1.6c0.9,0.9,1.1,2,0.6,3.2C1198.3,64.1,1197.4,64.8,1195.9,64.8z"/>
		<path class="st4" d="M1270.4,11.1c0,2.8-1.6,4.2-3.8,3.8c-0.9-0.2-1.5-0.7-2-1.5c-0.7-1.2-0.8-2.5-0.5-3.9
			c0.3-1.2,1.3-1.9,2.6-2.1c1.3-0.1,2.4,0.3,3,1.4C1270.2,9.7,1270.4,10.6,1270.4,11.1z"/>
		<path class="st4" d="M1186.7,87.3c-0.1,0.5-0.2,1.2-0.3,1.9c0,0.3-0.2,0.3-0.4,0.3c-0.9-0.2-1.8-0.3-2.7-0.4
			c-0.2,0-0.4-0.1-0.3-0.4c0.1-0.7,0.2-1.4,0.4-2.1c0.3-1,1-1.5,1.8-1.3C1186.2,85.4,1186.7,86.1,1186.7,87.3z"/>
		<path class="st4" d="M1279.9,8.8c0-0.5,0.1-1,0.1-1.5c0-0.3,0.1-0.3,0.4-0.3c0.7,0.1,1.5,0.1,2.2,0.1c0.9,0.1,1.5,0.8,1.5,1.6
			c0,0.9-0.5,1.5-1.4,1.7c-0.8,0.2-1.7,0-2.5,0c-0.2,0-0.2-0.2-0.2-0.3C1279.9,9.6,1279.9,9.2,1279.9,8.8
			C1279.9,8.8,1279.9,8.8,1279.9,8.8z"/>
		<path class="st1" d="M1338.3,35.3c-0.8-0.7-1.6-1.4-2.5-2.2c1.4-0.8,2.8-1.5,4.3-2.4C1339.5,32.3,1338.9,33.7,1338.3,35.3z"/>
		<path class="st4" d="M1190.3,73.9c-0.1,0.7-0.4,1.5-0.7,2.3c-0.1,0.2-0.2,0.1-0.4,0.1c-1-0.3-1.9-0.6-2.9-0.9
			c-0.2-0.1-0.4-0.1-0.3-0.3c0.3-0.8,0.4-1.6,0.8-2.3c0.4-0.8,1.1-1,2-0.8C1189.8,72.2,1190.3,72.8,1190.3,73.9z"/>
		<path class="st4" d="M1359.6,60.7c-0.6-0.1-1.1-0.4-1.4-0.9c-0.4-0.6-0.7-1.2-1-1.8c-0.1-0.2-0.1-0.3,0.2-0.4
			c0.9-0.5,1.8-0.9,2.7-1.4c0.2-0.1,0.3-0.1,0.5,0.1c0.3,0.7,0.7,1.3,1,1.9C1362,59.4,1361,60.7,1359.6,60.7z"/>
		<path class="st3" d="M1254.9,71.8c-0.4-1.1-1.4-1.1-2.8-0.3c-0.2-2.2,0.6-3.4,2.7-3.8c1.2-0.2,2.5,0,3.7-0.2
			c0.1-0.2,0.3-0.3,0.6-0.2c0.6-0.2,1.2-0.2,1.6-0.8c0.4-0.2,0.6-0.7,1.1-0.8c1.3-1.2,2.9-1.3,4.6-1.1c2.3,0.4,4.5,1.2,6.6,2.1
			c2.3,1,4.6,1,7,0.7c0.9-0.1,1.9-0.3,2.8-0.5c0.2,0,0.3-0.1,0.4,0c0.1,0.2-0.1,0.3-0.2,0.5c-1.1,1.3-2.5,2-4.2,2.2
			c-0.8,0.1-1.6,0.2-2.3,0.3c-0.4,0-0.4,0.1-0.3,0.5c0.5,1.4,0.9,2.8,1,4.2c0.2,2.1-0.5,3.9-1.8,5.5c-2.1,2.5-4.4,4.9-6.3,7.6
			c-1.5,2.2-3,4.4-3.8,7c-0.5,1.8-0.7,3.6,0,5.4c0.3,0.8,0.7,1.7,1.7,1.9c1.1,0.2,2.1-0.6,2-1.7c-0.1-3,0.6-5.9,1.9-8.6
			c2.5-4.9,6.1-8.9,10.2-12.5c2.9-2.6,5.9-5.1,8.8-7.7c2-1.8,3.4-4,4.4-6.5c0.8-1.9,1.5-3.9,2.2-5.9c1-2.7,1-5.5,0.5-8.2
			c-0.1-0.5,0.1-0.5,0.4-0.4c1.2,0.2,2,1,2.9,1.7c1.9,1.5,2,3.4,1.6,5.5c-0.4,2.1-1.2,4.2-2,6.2c-0.1,0.2-0.2,0.5-0.3,0.7
			c2-1.6,4-4.7,4.5-7c0.1-0.4,0.1-0.8,0.2-1.2c0-0.2,0-0.5,0.3-0.6c0.3,0,0.4,0.2,0.6,0.4c1.1,1.2,1.2,2.5,1,4
			c-0.3,2.3-1.3,4.4-2.5,6.4c-1,1.8-2.3,3.4-3.6,5c-0.4,0.5-0.8,1-1.1,1.7c0.4-0.2,0.7-0.4,0.9-0.7c3.9-3.5,6.9-7.7,9.5-12.1
			c2.4-4.1,3.4-8.6,3.4-13.3c0-0.6,0-1.1,0.1-1.7c0.1-0.5,0.3-0.5,0.7-0.3c1.8,1,2.4,2.6,2.7,4.5c0.5,3.6-0.6,6.8-2.1,9.9
			c-1,2.2-2.4,4.1-3.8,6.1c-0.1,0.1-0.1,0.2-0.2,0.3c2-0.9,5.2-6,7.5-11.9c0.5,0.8,0.7,1.6,0.8,2.5c0.3,2.7-0.6,5.1-2,7.3
			c-0.5,0.9-1.2,1.7-1.9,2.6c0.7-0.3,1.1-0.7,1.6-1c0.3-0.2,0.7-0.7,1-0.5c0.3,0.2,0,0.8-0.1,1.1c-1.3,3.8-3.4,7.1-6.3,10
			c-2.5,2.5-5.3,4.7-7.9,7.2c-0.3,0.3-0.6,0.5-0.7,0.8c0.3,0.1,0.5,0,0.7-0.1c2.1-0.8,3.8-2.2,5.4-3.6c0.8-0.8,1.7-1.5,2.6-2.2
			c0.2-0.1,0.3-0.3,0.5-0.2c0.2,0.1,0.2,0.4,0.2,0.6c0,1.7-0.5,3.2-1.6,4.5c-1.6,2.1-3.6,3.6-5.6,5.3c-1.1,0.9-2.2,1.9-3.2,2.8
			c-0.1,0.1-0.1,0.2-0.2,0.3c0.3,0.2,0.5,0,0.7,0c1.5-0.6,2.9-1.2,4.3-2c0.5-0.3,0.9-0.8,1.4-1.1c0.2-0.1,0.3-0.2,0.5-0.1
			c0.2,0.1,0.1,0.3,0.1,0.5c0,0.4-0.2,0.8-0.3,1.2c-1,2.5-2.7,4.6-4.9,6.2c-1.3,1-2.7,1.8-4.2,2.6c-0.4,0.2-0.9,0.5-1.3,0.9
			c1,0.2,1.8-0.1,2.7-0.3c1.3-0.4,2.5-0.9,3.8-1.3c0.1,0,0.2-0.1,0.3-0.1c0.2,0,0.4-0.2,0.5,0c0.1,0.2-0.1,0.4-0.2,0.5
			c-2.3,2.6-4.7,5-7.7,6.6c-0.3,0.1-0.7,0.3-0.6,0.6c0.1,0.4,0.6,0.3,0.9,0.2c0.6-0.1,1.2-0.3,1.8-0.4c1-0.2,1.4,0.3,1,1.3
			c-0.8,1.6-2,2.9-3.6,3.6c-0.6,0.2-1.2,0.4-1.7,0.7c-0.2,0.1-0.4,0.2-0.3,0.4c0,0.2,0.3,0.2,0.4,0.3c0.6,0.2,1.2,0.1,1.8,0.2
			c0.3,0,0.4,0.1,0.3,0.4c-0.4,1.1-1.3,1.8-2.2,2.4c-1.4,0.8-2.9,1.3-4.4,1.9c-0.2,0.1-0.5,0.2-0.8,0.4c2.5,0.9,4.7,2.3,6.8,3.8
			c3,2.2,5.6,4.8,7.1,8.3c0.6,1.4,0.9,3,1.1,4.5c0.2,2.4,0.3,4.7-0.2,7.1c-0.6,2.5-1.5,4.8-3.4,6.7c-0.3,0.3-0.6,0.5-1,0.8
			c-0.1-1.1,0.1-2.2,0.2-3.2c0.4-4.3-0.4-8.4-2.2-12.4c-1.8-4-4.3-7.2-7.6-10c-1.6-1.3-3.2-2.7-5-3.8c-0.3-0.2-0.8-0.6-1-0.3
			c-0.3,0.3,0.2,0.7,0.4,1c1.2,1.6,2.7,2.9,4,4.4c1.3,1.5,2.7,3.1,3.7,4.9c1.6,3,1.5,6-0.2,9c-0.1,0.1-0.2,0.3-0.4,0.3
			c-0.2,0-0.3-0.3-0.3-0.4c-0.2-0.8-0.3-1.6-0.4-2.4c-0.6-3.3-2.1-6.2-4.3-8.7c-1.6-1.8-3.4-3.4-5.5-4.8c-0.3-0.2-0.6-0.6-0.9-0.3
			c-0.3,0.2,0.1,0.6,0.2,0.9c0.4,0.7,0.9,1.3,1.5,1.9c0.5,0.5,1,1,1.5,1.5c0.8,0.8,1.1,1.7,1,2.8c-0.1,1.2-0.2,2.5-0.2,3.7
			c0,2.2,0.7,4.1,2.5,5.6c1.2,0.9,2.3,1.9,3.4,2.9c-0.5,0.2-1,0.2-1.5,0.2c-1.2,0-2.4-0.1-3.6,0.1c-0.2,0-0.4,0.1-0.5,0.4
			c-0.3,2.3-0.4,4.7-0.1,7c0.4,2.6,1,5.2,2.1,7.7c0.5,1.1,1.3,2.1,2.3,2.8c0.6,0.4,1.4,0.5,2.1,0.6c1.4,0,2.8,0,4.2,0.2
			c0.6,0.1,1.2,0.3,1.7,0.6c0.7,0.4,0.9,1,0.4,1.7c-0.3,0.5-0.8,0.8-1.3,1.1c-0.8,0.4-1.6,0.8-2.5,1c-0.4,0.1-0.7,0.1-0.7-0.5
			c0-0.5-0.4-0.8-0.8-1.1c-1-0.8-2.3-1.2-3.5-1.2c-2.4,0-4.9,0-7.3,0.7c-1.5,0.4-2.8,1.1-3.9,2.1c-0.1,0.1-0.1,0.1-0.2,0.2
			c-0.4,0.3-0.8,0.7-1.2,0.5c-0.5-0.2-0.4-0.7-0.4-1.1c-0.2-1-0.3-1.1-1.3-0.9c-0.3,0.1-0.8,0.2-1-0.1c-0.2-0.3,0.1-0.6,0.3-0.9
			c0.5-0.7,1.1-1.4,1.7-2c0.5-0.5,1.1-0.8,1.9-0.8c1.5,0,2.9,0,4.4,0.1c0.7,0,1.5,0,2.1-0.3c0.5-0.2,0.6-0.5,0.4-1.1
			c-1.1-3.1-2.1-6.3-3.3-9.4c-0.7-1.8-0.8-3.7-0.7-5.6c0-1-0.3-1.4-1.4-1.4c-0.7,0-1.5,0-2.2,0c-0.6,0-0.7-0.3-0.6-0.8
			c0.1-0.2,0.1-0.5,0.2-0.7c0.6-1.4,0.9-2.9,1.1-4.4c0-0.3,0-0.7,0-1.1c-0.1-0.7-0.4-1.2-1.2-1.3c-1.3-0.1-2.6-0.4-4-0.2
			c-0.6,0.1-1,0.4-1.1,1c-0.2,1.2-0.5,2.5-0.4,3.7c0.1,1.3,0.5,2.4,1.8,3.1c0.2,0.1,0.5,0.2,0.4,0.5c-0.1,0.2-0.4,0.2-0.6,0.2
			c-0.4,0-0.8,0.1-1.2,0.1c-0.9-0.1-1.2,0.3-1.5,1.1c-0.7,2-1.9,3.7-2.9,5.6c-1.6,2.9-3.6,5.5-5.8,8c-0.3,0.4-0.8,0.7-1.2,1.1
			c-0.3,0.3-0.6,0.5-0.8,0.9c-0.5,0.9-0.1,1.6,0.9,1.6c2.2,0,4.3-0.1,6.4,0.4c0.6,0.1,1,0.3,1.2,0.9c0.1,0.6-0.1,1.1-0.7,1.4
			c-1.5,0.7-2.9,1.2-4.3,0.2c-1.4-1.1-3.2-1.3-4.9-1.1c-1.5,0.2-3.1,0.4-4.6,0.2c-1.1-0.1-2.2-0.1-3.3,0.1c-1.4,0.3-2.5,1.1-3.1,2.4
			c-0.2,0.3-0.3,0.9-0.7,0.8c-0.4-0.1-0.3-0.6-0.4-1c-0.1-0.6-0.1-1.2,0.1-1.7c0.1-0.1,0.2-0.3,0-0.4c-0.1-0.1-0.3,0-0.4,0
			c-0.5,0.1-1,0.3-1.5,0.4c-0.6,0-0.7-0.2-0.5-0.7c0.3-0.7,0.9-1.3,1.6-1.7c0.3-0.2,0.6-0.3,0.8-0.6c1.1-1.1,2.4-1.2,3.8-1
			c0.8,0.2,1.7,0.3,2.5,0.5c0.7,0.1,1.3,0.1,2-0.1c0.6-0.1,1-0.4,1.3-0.9c3.8-5.4,6.9-11.1,9.1-17.3c0-0.1,0.2-0.3,0.1-0.5
			c-1.7-0.1-3.5-0.1-5.3-0.2c0.4-0.7,0.9-1.3,1.3-1.9c1.6-2,2.4-4.4,2.6-6.9c0-0.4,0-0.7-0.1-1.1c-0.2-1-0.6-1.6-1.7-2
			c-3.2-1-5.9-2.9-8.5-5.1c-2.3-1.9-4.3-4-5.8-6.7c-1.5-2.7-2.4-5.6-2.4-8.7c0-2.2,0.7-4.3,1.8-6.2c1.7-2.9,3.9-5.5,6.3-7.8
			c3.8-3.7,7.8-7.2,12.1-10.5c1.4-1.1,2.4-2.5,3.3-4.1c0.4-0.7,0.4-1.5,0.1-2.2c-0.6-1.8-2.1-2.9-3.9-2.9c-2.1,0-4.2,0-6.3-0.3
			c-0.8-0.1-1.5-0.4-2.1-1C1255,72.2,1254.8,72.1,1254.9,71.8z"/>
		<path class="st4" d="M1259,67.5c-0.2,0-0.4,0-0.6,0.1c-0.1-1.2,0.1-1.5,1.4-1.5c1.3,0,1.3,0,1.4-1.3c0-0.2,0-0.5,0.1-0.7
			c0.1-0.5,0.3-0.7,0.8-0.8c0.4,0,0.7-0.1,1.1-0.1c0.5,0,0.7-0.1,0.7-0.7c0-0.4,0-0.8,0-1.2c0.1-0.7,0.3-0.9,1-1
			c0.6-0.1,1.3,0.2,1.6-0.2c0.3-0.4,0.1-1.1,0.1-1.6c0-0.7,0.3-1,1-1c0.4,0,0.9,0,1.4-0.1c0.3,0,0.4-0.1,0.4-0.4
			c-0.1-0.8,0-1.7-0.4-2.5c-0.8-1.5-0.1-3.4,1.4-4.2c0.5-0.2,0.5-0.5,0.5-0.9c-0.1-3.2-0.2-6.4-0.4-9.5c0-0.4,0.1-0.6,0.5-0.6
			c0.4,0,0.5,0.1,0.5,0.5c0.1,3.2,0.2,6.4,0.3,9.6c0,0.4,0.1,0.5,0.5,0.6c1.2,0.2,2.1,0.9,2.5,2.1c0.1,0.4,0.3,0.5,0.7,0.4
			c2.7-0.3,5.3-0.5,8-0.8c0.6-0.1,1.3-0.1,1.9-0.2c0.5-0.1,0.4,0.3,0.4,0.5c0,0.3,0.1,0.5-0.3,0.5c-1.8,0.1-3.5,0.3-5.3,0.5
			c-1.6,0.2-3.2,0.3-4.9,0.5c-0.2,0-0.3,0.1-0.4,0.3c-1,2.5-2.5,3.1-5.1,2c0,0.4,0,0.7,0,1c0,0.7-0.3,1-1,1c-0.4,0-0.8,0-1.2,0
			c-0.4,0-0.6,0.2-0.6,0.6c0,0.4,0,0.8,0,1.2c0,0.8-0.2,1-1,1c-0.4,0-0.7,0-1.1,0c-0.4,0-0.7,0.2-0.6,0.6c0,0.4,0,0.9,0,1.3
			c-0.1,0.6-0.3,0.9-0.9,0.9c-1.8,0.1-1.8,0.1-1.8,1.9c-0.3,0.3-0.5,0.7-0.9,0.9c-0.2,0.1-0.5,0.2-0.7,0.2
			C1259.6,66.9,1259.3,67.1,1259,67.5z"/>
		<path class="st4" d="M1254.9,71.8c0.1,0.2,0.3,0.4,0.4,0.5c-0.3,0-0.7,0-1,0c-0.5-0.1-0.6,0.1-0.6,0.5c0,0.5,0,0.9-0.1,1.4
			c-0.1,0.7-0.3,0.9-1,0.9c-0.1,0-0.2,0-0.3,0c-1.4,0-1.4,0-1.4,1.4c0.1,2.9,0.2,5.8,0.3,8.7c0.1,1.7,0.1,3.5,0.2,5.2
			c0,0.4-0.1,0.5-0.5,0.5c-0.4,0-0.6,0-0.6-0.5c0-1.7-0.1-3.5-0.2-5.2c0-0.3,0-0.6-0.5-0.5c-0.4,0-0.6-0.3-0.9-0.6
			c-0.4-0.4-0.6-0.3-1,0.1c-1,1.1-1,1.1-2.1,0.1c-0.3-0.3-0.5-0.3-0.7,0.1c-0.2,0.3-0.4,0.5-0.5,0.8c-0.3,0.4-0.6,0.5-1,0.1
			c0,0,0,0,0,0c-1-0.8-1-0.8-1.8,0.2c-0.3,0.4-0.7,0.5-1.1,0.1c-0.1-0.1-0.3-0.2-0.5-0.4c-0.3-0.3-0.6-0.4-0.9,0
			c-0.1,0.1-0.2,0.2-0.3,0.1c-0.2-0.2,0-0.3,0.1-0.4c0.4-0.5,0.7-0.5,1.2-0.1c0.9,0.7,0.9,0.7,1.7-0.2c0.4-0.5,0.6-0.6,1.2-0.1
			c0.9,0.7,0.9,0.7,1.6-0.2c0.5-0.6,0.7-0.7,1.3-0.1c0.8,0.7,0.8,0.7,1.5-0.1c0.7-0.7,0.7-0.7,1.5-0.1c0.2,0.2,0.4,0.5,0.7,0.4
			c0.4-0.2,0.2-0.6,0.2-0.9c-0.1-1.9-0.1-3.7-0.2-5.6c0-0.4-0.1-0.5-0.6-0.4c-4.2,0.4-8.5,0.8-12.7,1.2c-0.4,0-0.6-0.1-0.6-0.5
			c0-0.4,0.1-0.5,0.5-0.6c4-0.4,8-0.7,12-1.1c0.5,0,1-0.1,1.5-0.1c0.3,0,0.4-0.1,0.4-0.4c0-1,0.2-1.2,1.2-1.2c1.4,0,1.4,0,1.5-1.4
			C1253.2,71.7,1253.2,71.7,1254.9,71.8z"/>
		<path class="st0" d="M1265,69.1c-0.7,0-1.3,0-1.9-0.4c-0.7-0.4-0.7-1,0-1.3c1.1-0.6,2.3-0.5,3.5,0c0.3,0.1,0.5,0.4,0.5,0.7
			c0,0.3-0.3,0.5-0.5,0.7C1266,69,1265.5,69.1,1265,69.1z"/>
		<path class="st5" d="M1259,67.5c0-0.8,0-0.8,0.8-0.8c0.3,0,0.7,0,1,0C1260.4,67.2,1259.7,67.4,1259,67.5z"/>
	</g>
	<text transform="matrix(1 0 0 1 724.7905 71.8379)" class="st6 st7 st8">String</text>
	<text transform="matrix(1 0 0 1 724.8145 153.7036)" class="st6 st7 st8">Phenomenology</text>
</g>
</svg>
